<svg width="30" height="30" viewBox="0 0 30 30" fill="none" xmlns="http://www.w3.org/2000/svg">
<path d="M27 20.875V8.125C27 6.94917 26.0547 6 24.8836 6H5.1164C3.94533 6 3 6.94917 3 8.125V20.875C3 22.0508 3.94533 23 5.1164 23H24.8836C26.0547 23 27 22.0508 27 20.875ZM25.1517 7.96917C25.6173 8.43667 25.3633 8.91833 25.1093 9.15917L19.381 14.4292L24.8836 20.1808C25.0529 20.3792 25.1658 20.6908 24.9683 20.9033C24.7848 21.13 24.3616 21.1158 24.1781 20.9742L18.0123 15.69L14.9929 18.4525L11.9877 15.69L5.82187 20.9742C5.63845 21.1158 5.21517 21.13 5.03175 20.9033C4.83422 20.6908 4.94709 20.3792 5.1164 20.1808L10.619 14.4292L4.89065 9.15917C4.63668 8.91833 4.38272 8.43667 4.84832 7.96917C5.31393 7.50167 5.79365 7.72833 6.18871 8.06833L14.9929 15.2083L23.8113 8.06833C24.2063 7.72833 24.6861 7.50167 25.1517 7.96917Z" fill="#C5A47E"/>
</svg>
