<svg width="60" height="67" viewBox="0 0 60 67" fill="none" xmlns="http://www.w3.org/2000/svg">
<path fill-rule="evenodd" clip-rule="evenodd" d="M27.5766 0.421456C28.888 -0.0692189 30.3209 -0.133187 31.6708 0.238676L32.2424 0.421456L55.5054 9.14506C56.6849 9.58736 57.7145 10.3557 58.4741 11.3607C59.2337 12.3656 59.692 13.5658 59.7957 14.8212L59.819 15.3696V33.1923C59.8189 38.5774 58.3649 43.8626 55.6104 48.49C52.856 53.1174 48.9033 56.9152 44.1697 59.4828L43.2857 59.9447L32.1394 65.5178C31.5257 65.8243 30.8553 66.0007 30.1703 66.0362C29.4852 66.0716 28.8002 65.9653 28.1581 65.7239L27.6796 65.5178L16.5333 59.9447C11.7166 57.5363 7.63947 53.872 4.73236 49.3388C1.82525 44.8056 0.196009 39.5716 0.0166168 34.1893L0 33.1923V15.3696C1.9325e-05 14.1105 0.357673 12.8773 1.03133 11.8136C1.70498 10.7498 2.66691 9.89934 3.80515 9.36108L4.31361 9.14506L27.5766 0.421456ZM41.3183 21.8034L26.0379 37.0839L20.1623 31.2083C19.5387 30.5852 18.6932 30.2353 17.8116 30.2356C16.93 30.2359 16.0847 30.5864 15.4616 31.21C14.8384 31.8335 14.4885 32.6791 14.4888 33.5607C14.4891 34.4423 14.8396 35.2876 15.4632 35.9107L23.4524 43.8999C23.7919 44.2395 24.1949 44.509 24.6385 44.6928C25.0822 44.8766 25.5577 44.9712 26.0379 44.9712C26.5181 44.9712 26.9936 44.8766 27.4372 44.6928C27.8809 44.509 28.2839 44.2395 28.6234 43.8999L46.0174 26.5025C46.3348 26.196 46.588 25.8293 46.7622 25.4238C46.9364 25.0184 47.028 24.5823 47.0319 24.141C47.0357 23.6998 46.9516 23.2622 46.7845 22.8537C46.6174 22.4453 46.3707 22.0743 46.0586 21.7622C45.7466 21.4502 45.3755 21.2034 44.9671 21.0363C44.5587 20.8692 44.1211 20.7852 43.6798 20.789C43.2386 20.7928 42.8025 20.8845 42.397 21.0587C41.9916 21.2328 41.6249 21.486 41.3183 21.8034Z" fill="#5D5D5B"/>
</svg>
