<svg width="30" height="30" viewBox="0 0 30 30" fill="none" xmlns="http://www.w3.org/2000/svg">
<path d="M26.6625 23.7936C26.5055 24.4973 26.1163 25.1278 25.5575 25.5836C24.947 26.2027 24.2196 26.6944 23.4175 27.03C22.6153 27.3656 21.7545 27.5385 20.885 27.5386H20.4788C18.6538 27.4395 16.8669 26.9776 15.2225 26.1798H15.21C14.8288 26.0023 14.435 25.8248 14.0538 25.6086C12.1343 24.5323 10.3737 23.1945 8.82251 21.6336C6.80946 19.7427 5.15752 17.5012 3.94751 15.0186C3.30445 13.658 2.87523 12.2063 2.67501 10.7148C2.38059 9.15356 2.5577 7.54001 3.18376 6.0798C3.579 5.42103 4.06173 4.81888 4.61876 4.2898C4.8694 4.00637 5.17584 3.7777 5.5189 3.61811C5.86196 3.45851 6.23426 3.37143 6.61251 3.3623C7.02389 3.40777 7.42214 3.53449 7.78414 3.73513C8.14614 3.93576 8.46468 4.20631 8.72126 4.53105C9.29251 5.1523 9.99001 5.7998 10.5625 6.3973L11.35 7.1723C11.8125 7.5823 12.0988 8.1548 12.15 8.7723C12.15 9.33855 11.9413 9.8848 11.565 10.3086C11.3213 10.6049 11.0627 10.8886 10.79 11.1586L10.5363 11.4248C10.3888 11.5623 10.2763 11.7323 10.2063 11.9211C10.1438 12.1069 10.1188 12.2973 10.1313 12.4923C10.3325 13.0311 10.6488 13.5211 11.0563 13.9273C11.6925 14.7898 12.3275 15.5398 12.975 16.3523C14.1462 17.712 15.5361 18.8666 17.0875 19.7686C17.2463 19.8848 17.4288 19.9623 17.6225 19.9961C17.79 20.0086 17.96 19.9836 18.1175 19.9211C18.5613 19.6598 18.955 19.3248 19.285 18.9298C19.7288 18.3863 20.3659 18.036 21.0625 17.9523C21.7329 17.9615 22.3724 18.2356 22.8413 18.7148C23.095 18.9298 23.3738 19.2223 23.6413 19.5023L24.0213 19.8948L24.415 20.2761L25.0888 20.9611C25.4904 21.3177 25.8671 21.699 26.2188 22.1048C26.5713 22.5923 26.73 23.1961 26.6625 23.7936ZM22.105 15.0948C21.8532 15.0922 21.6124 14.991 21.4344 14.8129C21.2563 14.6349 21.1551 14.3941 21.1525 14.1423C21.1538 13.4233 21.0132 12.7111 20.7386 12.0465C20.4641 11.382 20.061 10.7782 19.5526 10.2697C19.0442 9.76129 18.4404 9.35824 17.7758 9.08369C17.1113 8.80914 16.399 8.66849 15.68 8.6698C15.4274 8.6698 15.1851 8.56945 15.0065 8.39082C14.8279 8.2122 14.7275 7.96992 14.7275 7.7173C14.7275 7.46469 14.8279 7.22241 15.0065 7.04379C15.1851 6.86516 15.4274 6.7648 15.68 6.7648C16.6493 6.76332 17.6093 6.95314 18.505 7.32337C19.4008 7.6936 20.2146 8.23696 20.9 8.92232C21.5854 9.60768 22.1287 10.4216 22.4989 11.3173C22.8692 12.2131 23.059 13.1731 23.0575 14.1423C23.0578 14.2675 23.0334 14.3915 22.9857 14.5072C22.9379 14.6229 22.8678 14.728 22.7793 14.8166C22.6908 14.9051 22.5856 14.9752 22.4699 15.023C22.3542 15.0707 22.2302 15.0951 22.105 15.0948Z" fill="#C5A47E"/>
<path d="M26.5112 14.6498C26.2596 14.6472 26.0191 14.5462 25.841 14.3684C25.663 14.1906 25.5617 13.9502 25.5587 13.6986C25.5607 12.4735 25.3211 11.26 24.8536 10.1275C24.3861 8.99513 23.6999 7.96601 22.8342 7.09908C21.9686 6.23215 20.9404 5.54442 19.8087 5.07525C18.677 4.60607 17.4639 4.36466 16.2387 4.36482C16.1108 4.36946 15.9833 4.34827 15.8638 4.30252C15.7442 4.25677 15.6352 4.1874 15.543 4.09856C15.4509 4.00971 15.3776 3.90321 15.3276 3.78541C15.2775 3.66761 15.2517 3.54094 15.2517 3.41295C15.2517 3.28496 15.2775 3.15829 15.3276 3.04049C15.3776 2.92269 15.4509 2.81619 15.543 2.72734C15.6352 2.63849 15.7442 2.56912 15.8638 2.52338C15.9833 2.47763 16.1108 2.45644 16.2387 2.46107C17.7139 2.46107 19.1746 2.75183 20.5372 3.31672C21.8999 3.88161 23.1379 4.70956 24.1804 5.75322C25.2229 6.79688 26.0495 8.03579 26.6129 9.39911C27.1763 10.7624 27.4654 12.2234 27.4637 13.6986C27.4641 13.8238 27.4397 13.9478 27.3919 14.0635C27.3442 14.1792 27.274 14.2843 27.1855 14.3728C27.097 14.4613 26.9918 14.5315 26.8761 14.5792C26.7604 14.627 26.6364 14.6502 26.5112 14.6498Z" fill="#C5A47E"/>
</svg>
