<svg width="25" height="25" viewBox="0 0 25 25" fill="none" xmlns="http://www.w3.org/2000/svg">
<path d="M24.1261 20.4312C23.9691 21.135 23.5799 21.7655 23.0211 22.2212C22.4106 22.8404 21.6832 23.3321 20.881 23.6677C20.0789 24.0033 19.2181 24.1762 18.3486 24.1763H17.9423C16.1173 24.0772 14.3304 23.6152 12.6861 22.8175H12.6736C12.2923 22.64 11.8986 22.4625 11.5173 22.2462C9.59784 21.17 7.83724 19.8322 6.28607 18.2712C4.27302 16.3804 2.62108 14.1389 1.41107 11.6563C0.768008 10.2957 0.338789 8.84401 0.138573 7.3525C-0.15585 5.79126 0.0212572 4.17771 0.647322 2.7175C1.04257 2.05873 1.5253 1.45658 2.08232 0.9275C2.33296 0.644061 2.6394 0.415393 2.98246 0.2558C3.32552 0.0962082 3.69782 0.00912544 4.07607 0C4.48745 0.0454616 4.8857 0.172188 5.2477 0.372822C5.6097 0.573456 5.92824 0.844001 6.18482 1.16875C6.75607 1.79 7.45357 2.4375 8.02607 3.035L8.81357 3.81C9.27607 4.22 9.56232 4.7925 9.61357 5.41C9.61357 5.97625 9.40482 6.5225 9.02857 6.94625C8.7849 7.24261 8.52623 7.52632 8.25357 7.79625L7.99982 8.0625C7.85232 8.2 7.73982 8.37 7.66982 8.55875C7.60732 8.74458 7.58232 8.935 7.59482 9.13C7.79607 9.66875 8.11232 10.1587 8.51982 10.565C9.15607 11.4275 9.79107 12.1775 10.4386 12.99C11.6098 14.3497 12.9997 15.5043 14.5511 16.4062C14.7098 16.5225 14.8923 16.6 15.0861 16.6337C15.2536 16.6462 15.4236 16.6213 15.5811 16.5588C16.0248 16.2975 16.4186 15.9625 16.7486 15.5675C17.1924 15.024 17.8294 14.6737 18.5261 14.59C19.1964 14.5992 19.8359 14.8733 20.3048 15.3525C20.5586 15.5675 20.8373 15.86 21.1048 16.14L21.4848 16.5325L21.8786 16.9137L22.5523 17.5987C22.954 17.9554 23.3307 18.3367 23.6823 18.7425C24.0348 19.23 24.1936 19.8337 24.1261 20.4312ZM19.5686 11.7325C19.3168 11.7299 19.076 11.6287 18.8979 11.4506C18.7199 11.2726 18.6187 11.0318 18.6161 10.78C18.6174 10.061 18.4767 9.34876 18.2022 8.68421C17.9276 8.01966 17.5246 7.41585 17.0162 6.90742C16.5077 6.39899 15.9039 5.99594 15.2394 5.72139C14.5748 5.44683 13.8626 5.30618 13.1436 5.3075C12.891 5.3075 12.6487 5.20715 12.4701 5.02852C12.2914 4.84989 12.1911 4.60762 12.1911 4.355C12.1911 4.10238 12.2914 3.86011 12.4701 3.68148C12.6487 3.50285 12.891 3.4025 13.1436 3.4025C14.1128 3.40102 15.0728 3.59083 15.9686 3.96106C16.8643 4.33129 17.6782 4.87466 18.3636 5.56002C19.0489 6.24538 19.5923 7.05925 19.9625 7.955C20.3327 8.85075 20.5226 9.81076 20.5211 10.78C20.5214 10.9052 20.497 11.0292 20.4492 11.1449C20.4015 11.2606 20.3313 11.3657 20.2428 11.4543C20.1543 11.5428 20.0492 11.6129 19.9335 11.6607C19.8178 11.7084 19.6937 11.7328 19.5686 11.7325Z" fill="url(#paint0_linear_111_111)"/>
<defs>
<linearGradient id="paint0_linear_111_111" x1="12.0989" y1="3.29676" x2="12.0989" y2="19.2311" gradientUnits="userSpaceOnUse">
<stop offset="0.528846" stop-color="#EDC483"/>
<stop offset="1" stop-color="#FAE9C3"/>
</linearGradient>
</defs>
</svg>
