<svg width="22" height="22" viewBox="0 0 22 22" fill="none" xmlns="http://www.w3.org/2000/svg">
<path d="M14.3333 1C18.0152 1 21 3.98477 21 7.66667M16.9214 7.11111C16.5867 6.16399 15.836 5.41332 14.8889 5.07856M20.0154 18.6231C18.7838 19.8548 17.5866 21 15.7076 21C13.4397 21 11.5362 20.101 9.69919 18.8764C7.09476 17.1401 4.85993 14.9052 3.12364 12.3008C1.89896 10.4638 1 8.56034 1 6.29244C1 4.41343 2.14524 3.21625 3.37693 1.98456C5.37227 -0.0107814 7.55126 1.40502 9.1264 2.98016C9.88928 3.74305 9.88928 4.97993 9.1264 5.74281C8.30564 6.56357 8.54442 7.56567 9.0001 8.47703C9.97871 10.4343 11.5657 12.0213 13.523 12.9999C14.4343 13.4556 15.4364 13.6944 16.2572 12.8736C17.0201 12.1107 18.257 12.1107 19.0198 12.8736C20.595 14.4487 22.0108 16.6277 20.0154 18.6231Z" stroke="#333333" stroke-width="2" stroke-linecap="round" stroke-linejoin="round"/>
</svg>
