<svg width="18" height="22" viewBox="0 0 18 22" fill="none" xmlns="http://www.w3.org/2000/svg">
<path d="M6 16H10M6 12H8M10.1429 1H4C2.34315 1 1 2.34315 1 4V18C1 19.6569 2.34315 21 4 21H14C15.6569 21 17 19.6569 17 18V7.66667M10.1429 1V6.16667C10.1429 6.9951 10.8144 7.66667 11.6429 7.66667H17M10.1429 1H10.6767C11.0672 1 11.4424 1.15229 11.7224 1.42451L16.5456 6.11379C16.8361 6.39622 17 6.78414 17 7.18929V7.66667" stroke="#333333" stroke-width="2" stroke-linecap="round" stroke-linejoin="round"/>
</svg>
