<svg width="22" height="22" viewBox="0 0 22 22" fill="none" xmlns="http://www.w3.org/2000/svg">
<path d="M14.8263 13H17.5294C18.4042 13 19.1775 13.5685 19.4384 14.4035L20.8913 19.0526C21.1931 20.0185 20.4715 21 19.4595 21H2.54011C1.52815 21 0.806546 20.0185 1.10839 19.0526L2.56124 14.4035C2.82217 13.5685 3.59543 13 4.4702 13H7.17335M14.8263 13C16.0434 11.211 16.9998 9.29465 16.9998 7.44143C16.9998 3.88393 14.3135 1 10.9998 1C7.68611 1 4.99982 3.88393 4.99982 7.44143C4.99982 9.29465 5.95621 11.211 7.17335 13M14.8263 13C14.0032 14.2099 13.0608 15.3615 12.2143 16.3959L12.1868 16.4294C11.5643 17.1902 10.4354 17.1902 9.8128 16.4294L9.78538 16.3959C8.93889 15.3615 7.99649 14.2099 7.17335 13M12.9998 7C12.9998 8.10457 12.1044 9 10.9998 9C9.89525 9 8.99982 8.10457 8.99982 7C8.99982 5.89543 9.89525 5 10.9998 5C12.1044 5 12.9998 5.89543 12.9998 7Z" stroke="#333333" stroke-width="2" stroke-linecap="round" stroke-linejoin="round"/>
</svg>
