<svg width="40" height="40" viewBox="0 0 40 40" fill="none" xmlns="http://www.w3.org/2000/svg">
<g clip-path="url(#clip0_365_6270)">
<path d="M28.9726 27.9077C28.538 27.9077 28.1855 28.2623 28.1855 28.697C28.1855 29.1317 28.538 29.484 28.9726 29.484C29.4072 29.484 29.7596 29.1316 29.7596 28.697V28.6926C29.7596 28.2579 29.4073 27.9077 28.9726 27.9077Z" fill="#255A9E"/>
<path d="M32.4862 27.9077C32.0516 27.9077 31.6992 28.2623 31.6992 28.697C31.6992 29.1317 32.0516 29.484 32.4862 29.484C32.9209 29.484 33.2733 29.1316 33.2733 28.697V28.6926C33.2733 28.2579 32.9209 27.9077 32.4862 27.9077Z" fill="#255A9E"/>
<path d="M36.0038 27.9077C35.5692 27.9077 35.2168 28.2623 35.2168 28.697C35.2168 29.1317 35.5692 29.484 36.0038 29.484C36.4384 29.484 36.7909 29.1316 36.7909 28.697V28.6926C36.7909 28.2579 36.4385 27.9077 36.0038 27.9077Z" fill="#255A9E"/>
<path d="M19.5605 15.2212C19.5605 16.0098 20.2021 16.6513 20.9906 16.6513H23.1786C23.6572 16.6513 24.0805 16.4141 24.3403 16.0521C24.9738 16.3074 25.7141 16.4387 26.3366 16.4387H29.0891C31.0963 16.4387 32.7293 14.8066 32.7293 12.8006V10.8009C32.7293 9.3578 31.5543 8.18382 30.11 8.18382H29.3809V6.50468C29.3809 5.42179 28.5 4.54077 27.4172 4.54077C26.1484 4.54077 25.6795 5.76444 25.5024 6.22624L24.8223 8.00983C24.7228 8.27147 24.6305 8.42124 24.5181 8.50788C24.3158 7.96272 23.7925 7.57257 23.1786 7.57257H20.9906C20.2021 7.57257 19.5605 8.21507 19.5605 9.00491V15.2212ZM24.6087 10.1362C25.1927 10.0233 25.8628 9.67015 26.2825 8.56577L26.9619 6.78429C27.2228 6.10335 27.359 6.10335 27.4171 6.10335C27.6384 6.10335 27.8184 6.28343 27.8184 6.50476V8.96515C27.8184 9.39655 28.1683 9.7464 28.5997 9.7464H30.11C30.6927 9.7464 31.1668 10.2195 31.1668 10.801V12.8007C31.1668 13.9451 30.2347 14.8762 29.0891 14.8762H26.3365C25.6387 14.8762 24.9555 14.6581 24.6087 14.4514V10.1362ZM21.123 9.13507H23.0462V15.0889H21.123V9.13507Z" fill="#255A9E"/>
<path d="M38.2023 24.2174H28.1957C28.1462 23.5801 28.0546 22.9467 27.9195 22.3226C28.0372 22.3047 28.1546 22.2849 28.2719 22.2631C34.2033 21.1559 38.1304 15.4293 37.026 9.49768C36.4908 6.62323 34.8686 4.12955 32.458 2.47596C30.0473 0.822133 27.137 0.206586 24.263 0.742992C23.3791 0.907523 22.5231 1.17713 21.7187 1.54448C21.3262 1.72362 21.1532 2.18705 21.3324 2.57955C21.5116 2.97213 21.9752 3.14495 22.3675 2.9658C23.0563 2.65143 23.7903 2.42041 24.5493 2.27901C27.0131 1.81948 29.5077 2.34682 31.5742 3.76448C33.6405 5.18198 35.0312 7.31971 35.49 9.7837C36.4368 14.8688 33.0702 19.7781 27.986 20.7271C26.2862 21.0428 24.5373 20.8851 22.9283 20.2714C22.7227 20.1931 22.4934 20.2048 22.297 20.3044C20.8998 21.0118 19.3755 21.2469 17.7542 21.0075C18.4123 19.642 18.6041 18.4721 18.4746 16.9044C18.4641 16.7776 18.4229 16.6553 18.3544 16.548C17.7055 15.5326 17.2641 14.4131 17.0423 13.2202C16.6719 11.2333 16.9418 9.22455 17.8229 7.41104C18.0115 7.02291 17.8498 6.55549 17.4616 6.36698C17.0737 6.17823 16.6061 6.3401 16.4176 6.72823C15.722 8.15971 15.3541 9.69534 15.3216 11.2564C14.9216 11.2225 14.5199 11.2049 14.1198 11.2049C10.3486 11.2049 6.80273 12.6734 4.13539 15.3399C1.46867 18.0064 0 21.5522 0 25.3242C0 29.096 1.46867 32.6419 4.13508 35.3084C6.80164 37.9765 10.3475 39.446 14.1197 39.446C17.8936 39.446 21.4402 37.9766 24.1057 35.3085C24.8104 34.6037 25.4363 33.8307 25.9743 33.0021C26.2055 33.111 26.4635 33.1721 26.7355 33.1721H38.2023C39.1935 33.1721 40 32.3657 40 31.3744V26.0152C40 25.0239 39.1936 24.2174 38.2023 24.2174ZM18.2084 22.6309C18.4741 23.2138 18.6134 23.8517 18.6134 24.4984C18.6134 26.9763 16.5975 28.9921 14.1197 28.9921C11.6418 28.9921 9.62594 26.9763 9.62594 24.4984C9.62594 22.0205 11.6419 20.0046 14.1197 20.0046C14.8705 20.0046 15.5935 20.1877 16.2425 20.5369C16.1392 20.7379 16.0248 20.9456 15.8955 21.1651C15.7711 21.3764 15.753 21.6338 15.8468 21.8603C15.9405 22.0868 16.1351 22.2563 16.3725 22.3178C16.9947 22.4792 17.6068 22.5827 18.2084 22.6309ZM5.24016 34.2037C0.343906 29.3074 0.343906 21.3408 5.24008 16.4447C7.61219 14.0732 10.7657 12.7672 14.1198 12.7672C14.5475 12.7672 14.9773 12.7897 15.4039 12.8331C15.4317 13.0576 15.4644 13.282 15.5062 13.5061C15.7524 14.831 16.2316 16.0792 16.9312 17.2192C16.9763 17.9114 16.942 18.4946 16.806 19.0693C15.9767 18.6574 15.0645 18.4421 14.1197 18.4421C10.7802 18.4421 8.06344 21.1589 8.06344 24.4984C8.06344 25.9924 8.60844 27.361 9.50859 28.4182C7.35727 29.7409 5.87016 31.9192 5.42039 34.3797C5.35992 34.3215 5.29961 34.2631 5.24016 34.2037ZM14.1197 37.8835C11.4774 37.8835 8.96023 37.0722 6.85141 35.5683C6.98805 33.0217 8.4682 30.7166 10.733 29.5167C11.7003 30.1717 12.8661 30.5546 14.1197 30.5546C15.3736 30.5546 16.5396 30.1714 17.5071 29.5162C19.7725 30.716 21.253 33.0215 21.3897 35.5685C19.2811 37.0722 16.7634 37.8835 14.1197 37.8835ZM23.0005 34.204C22.9412 34.2634 22.881 34.3217 22.8207 34.3797C22.3709 31.9186 20.8834 29.74 18.7314 28.4175C19.6312 27.3603 20.1759 25.9921 20.1759 24.4985C20.1759 23.8571 20.0735 23.2218 19.8766 22.6174C20.8505 22.5198 21.791 22.2636 22.6927 21.8481C23.8695 22.2552 25.1043 22.4552 26.3444 22.4463C26.4812 23.03 26.5775 23.6231 26.6296 24.2208C25.6887 24.2759 24.94 25.0596 24.94 26.0152V26.5656L22.7098 28.0435C22.4914 28.1883 22.3601 28.4328 22.3601 28.6948C22.3601 28.9568 22.4914 29.2013 22.7098 29.346L24.94 30.8239V31.3745C24.94 31.4726 24.9482 31.5688 24.9634 31.6627C24.4228 32.5857 23.7646 33.4399 23.0005 34.204ZM38.4375 31.3744C38.4375 31.5019 38.3298 31.6096 38.2023 31.6096H26.7355C26.6093 31.6096 26.5026 31.5019 26.5026 31.3744V30.4044C26.5026 30.1424 26.3712 29.8979 26.1529 29.7531L24.5557 28.6947L26.1529 27.6363C26.3712 27.4915 26.5026 27.2471 26.5026 26.985V26.0151C26.5026 25.8875 26.6093 25.7798 26.7355 25.7798H38.2023C38.3298 25.7798 38.4375 25.8875 38.4375 26.0151V31.3744Z" fill="#255A9E"/>
<path d="M19.1718 5.0034C19.3723 5.0034 19.5731 4.92691 19.7259 4.77402C20.031 4.46895 20.031 3.97426 19.7259 3.66918C19.4208 3.36418 18.9262 3.36418 18.6211 3.66918L18.6189 3.67137C18.3138 3.97645 18.3149 4.47004 18.62 4.77512C18.7722 4.92746 18.9719 5.0034 19.1718 5.0034Z" fill="#255A9E"/>
</g>
<defs>
<clipPath id="clip0_365_6270">
<rect width="40" height="40" fill="white"/>
</clipPath>
</defs>
</svg>
