<svg width="40" height="40" viewBox="0 0 40 40" fill="none" xmlns="http://www.w3.org/2000/svg">
<g clip-path="url(#clip0_365_6261)">
<path d="M37.5781 4.84375H10.7031C9.41071 4.84375 8.35938 5.89508 8.35938 7.1875V10.9262L1.25549 3.82263C0.950623 3.51746 0.455933 3.51746 0.150757 3.82263C-0.154419 4.1275 -0.154419 4.62219 0.150757 4.92737L9.35303 14.1296L4.49097 18.9917L1.25549 15.7562C0.950623 15.4514 0.455933 15.4514 0.150757 15.7562C-0.154419 16.0614 -0.154419 16.5561 0.150757 16.8613L6.6449 23.3554L6.64399 24.0585C6.64124 25.853 7.25831 27.6148 8.35938 29.0201V34.0625C8.35938 35.3549 9.41071 36.4063 10.7031 36.4063H37.5781C38.8706 36.4063 39.9219 35.3549 39.9219 34.0625V16.2491C39.9219 15.8176 39.5722 15.4678 39.1406 15.4678C38.7091 15.4678 38.3594 15.8176 38.3594 16.2491V34.0625C38.3594 34.4931 38.0091 34.8438 37.5781 34.8438H21.268C21.3007 34.8148 21.3327 34.7849 21.3641 34.7534C21.5643 34.5532 21.7185 34.3244 21.8274 34.0799C22.1365 34.2346 22.4796 34.317 22.8354 34.317C23.4378 34.317 24.0042 34.0824 24.4306 33.6563C24.8566 33.2306 25.0913 32.6639 25.0913 32.0615C25.0913 31.7059 25.0089 31.3632 24.8544 31.0544C25.1019 30.9433 25.3299 30.7877 25.5274 30.5902C25.9534 30.1642 26.1881 29.5975 26.1881 28.9951C26.1881 28.3923 25.9534 27.8259 25.5274 27.3999L22.8366 24.7092C23.6652 24.7696 24.5032 24.4132 25.0253 23.6997L25.051 23.6646C25.8695 22.5455 25.6329 20.9641 24.5236 20.1395C23.8239 19.6195 22.876 18.9121 21.7063 18.0365C20.0653 16.8091 18.0338 16.1334 15.9845 16.1334C15.9811 16.1334 15.9778 16.1334 15.9741 16.1334L13.569 16.1359L9.92188 12.4887V7.1875C9.92188 6.75659 10.2722 6.40625 10.7031 6.40625H18.8593V14.3732C18.8593 14.6893 19.0497 14.9741 19.3417 15.0949C19.6335 15.2161 19.9695 15.1492 20.1929 14.9258L21.8906 13.2282L23.5883 14.9255C23.8931 15.2307 24.3878 15.2307 24.693 14.9255L26.3907 13.2282L28.0881 14.9255C28.2376 15.0751 28.4375 15.1544 28.6408 15.1544C28.7415 15.1544 28.8431 15.1349 28.9395 15.0949C29.2316 14.9741 29.422 14.6893 29.422 14.3732V6.40625H37.5781C38.0091 6.40625 38.3594 6.75659 38.3594 7.1875V9.99909C38.3594 10.4306 38.7091 10.7803 39.1406 10.7803C39.5722 10.7803 39.9219 10.4306 39.9219 9.99909V7.1875C39.9219 5.89508 38.8706 4.84375 37.5781 4.84375ZM9.92188 34.0625V30.6647L12.4747 33.2175C12.475 33.2178 12.4753 33.2181 12.4753 33.2181L14.101 34.8438H10.7031C10.2722 34.8438 9.92188 34.4931 9.92188 34.0625ZM15.976 17.6956H15.9845C17.6984 17.6956 19.3976 18.2611 20.77 19.2877C21.9412 20.1639 22.8906 20.8725 23.5916 21.3934C24.0146 21.7081 24.1037 22.3129 23.79 22.7417L23.7644 22.7768C23.4769 23.1696 22.9312 23.2706 22.5223 23.0069L19.5242 21.0742C19.1342 20.8231 18.6203 20.9058 18.3292 21.2671C18.0377 21.6281 18.0655 22.1478 18.3936 22.4759L24.4226 28.505C24.5535 28.6359 24.6256 28.8098 24.6256 28.9951C24.6256 29.1803 24.5535 29.3543 24.4226 29.4852C24.2917 29.6161 24.1174 29.6884 23.9322 29.6884C23.7747 29.6884 23.6252 29.6356 23.5034 29.5392L20.4776 26.5134C20.4569 26.4926 20.4349 26.4734 20.4123 26.4554L20.1032 26.1463C19.798 25.8414 19.3033 25.8411 18.9981 26.1463C18.6932 26.4511 18.6932 26.9458 18.9981 27.251L22.3374 30.5902C22.3718 30.6247 22.4079 30.6577 22.4442 30.6897L23.3258 31.5714C23.4567 31.7023 23.5288 31.8762 23.5288 32.0615C23.5288 32.2467 23.4567 32.4207 23.3258 32.5516C23.1949 32.6825 23.0206 32.7548 22.8354 32.7548C22.6505 32.7548 22.4762 32.6825 22.3453 32.5516L21.4633 31.6696C21.4316 31.6336 21.3989 31.5979 21.3641 31.5631L18.396 28.595C18.375 28.5742 18.353 28.555 18.3304 28.537L18.0212 28.2279C17.7164 27.9227 17.2217 27.9227 16.9165 28.2279C16.6113 28.5327 16.6113 29.0274 16.9165 29.3326L20.3131 32.7292C20.5277 33.0011 20.5103 33.3978 20.2594 33.6487C19.989 33.9188 19.5493 33.9188 19.2789 33.6487L18.2926 32.6624C18.2605 32.6257 18.2275 32.59 18.1931 32.5556L16.3144 30.6766C16.2933 30.6558 16.2714 30.6366 16.2488 30.6186L15.9396 30.3095C15.6348 30.0043 15.1401 30.0043 14.8349 30.3095C14.5297 30.6146 14.5297 31.1093 14.8349 31.4145L17.142 33.7216C17.2385 33.8434 17.2913 33.9929 17.2913 34.1504C17.2913 34.3356 17.2192 34.5099 17.088 34.6408C16.9571 34.7717 16.7832 34.8438 16.5979 34.8438C16.4127 34.8438 16.2387 34.7717 16.1078 34.6408L12.0157 30.5487C12.0154 30.5484 12.0151 30.5481 12.0151 30.5478L10.094 28.627C8.89222 27.4249 8.20405 25.7608 8.20649 24.0613L8.20832 22.9257L13.4354 17.6987L15.976 17.6956ZM7.21161 21.7124L5.59571 20.0968L10.4578 15.2344L12.0737 16.8503L7.21161 21.7124ZM27.8595 12.4872L26.9431 11.5707C26.6379 11.2659 26.1432 11.2659 25.8383 11.5707L24.1406 13.2684L22.4429 11.5707C22.2904 11.4182 22.0905 11.3419 21.8906 11.3419C21.6907 11.3419 21.4908 11.4182 21.3382 11.5707L20.4218 12.4872V6.40625H27.8595V12.4872Z" fill="#255A9E"/>
<path d="M34.9219 26.9653H29.9219C29.4904 26.9653 29.1406 27.3151 29.1406 27.7466C29.1406 28.1781 29.4904 28.5278 29.9219 28.5278H34.9219C35.3534 28.5278 35.7031 28.1781 35.7031 27.7466C35.7031 27.3151 35.3534 26.9653 34.9219 26.9653Z" fill="#255A9E"/>
<path d="M34.9215 30.1877H31.5361C31.1046 30.1877 30.7549 30.5375 30.7549 30.969C30.7549 31.4002 31.1046 31.7502 31.5361 31.7502H34.9215C35.353 31.7502 35.7027 31.4002 35.7027 30.969C35.7027 30.5375 35.353 30.1877 34.9215 30.1877Z" fill="#255A9E"/>
<path d="M28.4111 30.1875C28.2051 30.1875 28.0043 30.2711 27.8591 30.4164C27.7129 30.5616 27.6299 30.7634 27.6299 30.9688C27.6299 31.1744 27.7129 31.3759 27.8591 31.5211C28.0043 31.6664 28.2057 31.75 28.4111 31.75C28.6168 31.75 28.8182 31.6664 28.9635 31.5211C29.1091 31.3759 29.1924 31.1744 29.1924 30.9688C29.1924 30.7634 29.1091 30.5616 28.9635 30.4164C28.8182 30.2711 28.6168 30.1875 28.4111 30.1875Z" fill="#255A9E"/>
<path d="M39.1406 12.3428C38.9352 12.3428 38.7335 12.4264 38.5883 12.5717C38.443 12.7172 38.3594 12.9186 38.3594 13.124C38.3594 13.3297 38.443 13.5311 38.5883 13.6764C38.7335 13.8217 38.9352 13.9053 39.1406 13.9053C39.346 13.9053 39.5477 13.8217 39.693 13.6764C39.8383 13.5311 39.9219 13.3297 39.9219 13.124C39.9219 12.9186 39.8383 12.7172 39.693 12.5717C39.5477 12.4264 39.346 12.3428 39.1406 12.3428Z" fill="#255A9E"/>
</g>
<defs>
<clipPath id="clip0_365_6261">
<rect width="40" height="40" fill="white"/>
</clipPath>
</defs>
</svg>
