<svg width="40" height="40" viewBox="0 0 40 40" fill="none" xmlns="http://www.w3.org/2000/svg">
<g clip-path="url(#clip0_365_6267)">
<path d="M37.2807 1.18197C36.501 0.402251 34.9556 -0.397614 32.018 0.219756C30.0246 0.638457 27.6143 1.6672 25.0301 3.19827C23.4505 2.67733 21.7641 2.39444 20.0124 2.39444C11.1593 2.39444 3.95681 9.59688 3.95681 18.45C3.95681 20.1773 4.22597 21.8604 4.75759 23.4726C3.22835 26.0547 2.20052 28.4634 1.78213 30.4556C1.16506 33.3929 1.96462 34.9386 2.74435 35.7181C3.54055 36.5146 4.65718 36.9095 6.04909 36.9095C8.1078 36.9092 10.7686 36.0443 13.8829 34.3371L16.4382 39.5621C16.549 39.7885 16.7626 39.9478 17.0116 39.9893C17.0543 39.9966 17.0974 40 17.1401 40C17.3455 40 17.5447 39.9188 17.6924 39.7711L20.3136 37.1503C20.504 36.9595 20.5831 36.6842 20.5223 36.4215L20.0789 34.505C21.8907 34.4977 23.6602 34.1925 25.3496 33.5968L26.1928 35.2133L25.3105 36.0953C25.0054 36.4004 25.0054 36.8951 25.3105 37.2003C25.4631 37.3529 25.663 37.4292 25.8629 37.4292C26.0628 37.4292 26.263 37.3529 26.4153 37.2003L26.9502 36.6656L28.141 38.949C28.2561 39.1696 28.4694 39.3222 28.7154 39.36C28.7551 39.3661 28.7944 39.3692 28.8338 39.3692C29.0395 39.3692 29.2388 39.288 29.3865 39.1403L31.7928 36.7337C31.9576 36.5689 32.0403 36.3391 32.018 36.1072L31.4122 29.7559C32.8249 28.3328 33.9446 26.683 34.7432 24.8465C35.6224 22.8244 36.0683 20.6723 36.0683 18.45C36.0683 16.6989 35.7854 15.0125 35.2644 13.4335C38.6446 7.73317 39.3834 3.28463 37.2807 1.18197ZM19.3178 23.4375L10.6893 18.9374L12.0827 17.544L24.0682 18.6871L19.3178 23.4375ZM25.7646 16.9907H22.8951C21.5724 16.9907 20.4961 15.9143 20.4961 14.5914C20.4961 13.5819 21.3176 12.7603 22.3271 12.7603C23.5723 12.7603 24.5851 11.7475 24.5851 10.5023C24.5851 8.74086 26.0182 7.30806 27.7794 7.30806H29.2702C31.0219 8.76589 32.4257 10.6281 33.3367 12.75C31.2618 12.7161 29.2333 13.522 27.7455 15.0101L25.7646 16.9907ZM36.1757 2.28701C37.5792 3.69052 36.9353 7.17928 34.5226 11.5808C33.4731 9.37288 31.9341 7.44143 30.0469 5.92623C30.0444 5.92409 30.042 5.92226 30.0395 5.92013C29.0718 5.14407 28.0129 4.47756 26.8813 3.93984C31.2801 1.52987 34.7765 0.88748 36.1757 2.28701ZM27.0745 5.79806C24.7847 6.13955 23.0226 8.11892 23.0226 10.5023C23.0226 10.8856 22.7104 11.1975 22.3271 11.1975C20.4558 11.1975 18.9333 12.72 18.9333 14.5914C18.9333 15.3598 19.1539 16.077 19.5339 16.6849L11.8648 15.9534C11.6329 15.9314 11.4031 16.0138 11.238 16.1789L8.83168 18.5852C8.6559 18.7613 8.57411 19.0103 8.61195 19.2563C8.64949 19.5023 8.80238 19.7153 9.02272 19.8303L11.3063 21.0214L10.7717 21.5564C10.4665 21.8613 10.4665 22.356 10.7717 22.6611C10.9243 22.8137 11.1242 22.89 11.324 22.89C11.5239 22.89 11.7241 22.8137 11.8764 22.6611L12.7587 21.7792L14.7341 22.8095L14.2269 23.3167C13.922 23.6215 13.9217 24.1162 14.2269 24.4217C14.3795 24.574 14.5797 24.6503 14.7795 24.6503C14.9794 24.6503 15.1793 24.574 15.3319 24.4217L16.1867 23.5669L18.1594 24.5959L14.6041 28.1512L11.549 27.4493C11.2865 27.3889 11.0119 27.468 10.8214 27.6584L9.77376 28.7061C7.06349 25.997 5.51931 22.2934 5.51931 18.4503C5.51931 17.1393 5.69539 15.8688 6.02315 14.6604H11.1464C12.5481 14.6604 13.6885 13.5199 13.6885 12.1182V12.0459C13.6885 11.5058 14.128 11.0663 14.6682 11.0663C16.0698 11.0663 17.2103 9.92586 17.2103 8.52419V8.13906C17.2103 6.73739 16.0698 5.59695 14.6682 5.59695H13.322C15.3249 4.5502 17.6006 3.95724 20.0127 3.95724C22.5749 3.95693 24.9834 4.62618 27.0745 5.79806ZM10.9371 7.15944H14.6682C15.208 7.15944 15.6478 7.5989 15.6478 8.13906V8.52419C15.6478 9.06435 15.208 9.5038 14.6682 9.5038C13.2662 9.5038 12.1257 10.6442 12.1257 12.0459V12.1182C12.1257 12.6584 11.6863 13.0979 11.1461 13.0979H6.54408C7.47731 10.7575 9.0041 8.71614 10.9371 7.15944ZM3.84939 34.6133C2.45046 33.2144 3.09164 29.7205 5.49947 25.3241C6.29231 26.9971 7.35616 28.5022 8.66872 29.8111L8.20058 30.2792C8.02205 30.4578 7.94087 30.7114 7.98238 30.9607C8.02388 31.2097 8.18349 31.423 8.41054 31.5338L12.2756 33.4189C10.4415 34.3509 8.7624 34.9661 7.36195 35.2139C6.23342 35.4138 4.70784 35.4718 3.84939 34.6133ZM17.3613 37.8924L15.0826 33.2327C15.006 33.0765 14.8796 32.9501 14.7231 32.8738L14.3361 32.6849C14.3355 32.6846 14.3349 32.6843 14.3346 32.6843L10.0802 30.6094L11.6207 29.0689L14.6758 29.7708C14.9379 29.8312 15.2132 29.7522 15.4033 29.5618L28.8506 16.1148C30.1171 14.848 31.8755 14.2005 33.6449 14.3268C33.7706 16.0965 33.1236 17.8546 31.8572 19.1211L23.0278 27.9504C23.026 27.952 23.0242 27.9541 23.0223 27.9556L18.4053 32.5729C18.2146 32.7634 18.1359 33.0389 18.1966 33.3014L18.9022 36.3516L17.3613 37.8924ZM20.2477 32.9404L23.3757 29.8123L24.6187 32.1951C23.2131 32.6666 21.7473 32.9169 20.2477 32.9404ZM29.0346 37.2824L24.5342 28.6539L29.2845 23.9035L30.4277 35.889L29.0346 37.2824ZM31.2117 27.6517L30.7176 22.4707L32.9619 20.2261C33.607 19.5813 34.1231 18.8345 34.4991 18.0264C34.503 18.1671 34.5058 18.3084 34.5058 18.45C34.5055 21.8573 33.3461 25.0671 31.2117 27.6517Z" fill="#255A9E"/>
<path d="M19.2022 29.5503C19.4021 29.5503 19.6023 29.4741 19.7546 29.3218L24.5449 24.5311C24.8501 24.2263 24.8501 23.7316 24.5449 23.4264C24.2398 23.1212 23.7451 23.1212 23.4399 23.4264L18.6496 28.2167C18.3447 28.5219 18.3447 29.0166 18.6496 29.3218C18.8021 29.4744 19.0023 29.5503 19.2022 29.5503Z" fill="#255A9E"/>
<path d="M26.207 22.5464C26.4127 22.5464 26.6141 22.4631 26.7594 22.3175C26.905 22.1722 26.9886 21.9708 26.9886 21.7651C26.9886 21.5598 26.905 21.358 26.7594 21.2128C26.6141 21.0675 26.4127 20.9839 26.207 20.9839C26.001 20.9839 25.8002 21.0675 25.6547 21.2128C25.5088 21.358 25.4258 21.5598 25.4258 21.7651C25.4258 21.9708 25.5088 22.1722 25.6547 22.3175C25.8002 22.4631 26.001 22.5464 26.207 22.5464Z" fill="#255A9E"/>
</g>
<defs>
<clipPath id="clip0_365_6267">
<rect width="40" height="40" fill="white"/>
</clipPath>
</defs>
</svg>
