<svg width="40" height="40" viewBox="0 0 40 40" fill="none" xmlns="http://www.w3.org/2000/svg">
<g clip-path="url(#clip0_365_6264)">
<path d="M10.7524 34.1832C10.7532 34.3909 10.8366 34.5898 10.9842 34.7358C11.1305 34.8805 11.3278 34.9616 11.5335 34.9616H11.5394C11.5473 34.9615 12.3347 34.9556 12.9313 34.9451C14.0284 34.926 15.0051 34.4292 15.6814 33.5467C16.2965 32.7439 16.6352 31.6507 16.6352 30.4685C16.6352 27.781 15.1165 25.9753 12.8561 25.9753H11.5184C11.3111 25.9753 11.1121 26.0578 10.9656 26.2047C10.819 26.3515 10.7369 26.5506 10.7373 26.758C10.7373 26.758 10.7523 34.1563 10.7524 34.1832ZM12.8561 27.5376C14.4905 27.5376 15.0729 29.0516 15.0729 30.4685C15.0729 31.854 14.3942 33.3571 12.904 33.3831C12.7157 33.3864 12.5078 33.3892 12.3119 33.3915C12.309 32.514 12.3026 28.4479 12.301 27.5376H12.8561Z" fill="#255A9E"/>
<path d="M20.0028 34.9616C20.4342 34.9616 20.784 34.6118 20.784 34.1804V26.7565C20.784 26.3251 20.4342 25.9753 20.0028 25.9753C19.5714 25.9753 19.2217 26.3251 19.2217 26.7565V34.1804C19.2217 34.6118 19.5714 34.9616 20.0028 34.9616Z" fill="#255A9E"/>
<path d="M25.4381 30.6197L25.4293 34.1785C25.4282 34.6099 25.7772 34.9605 26.2086 34.9615H26.2105C26.641 34.9615 26.9906 34.6131 26.9917 34.1823L27.0004 30.6209L29.2264 27.2015C29.4618 26.8399 29.3595 26.356 28.998 26.1206C28.6364 25.8852 28.1525 25.9876 27.9172 26.3491L26.219 28.9578L24.5026 26.3293C24.2667 25.968 23.7827 25.8663 23.4215 26.1024C23.0603 26.3383 22.9587 26.8223 23.1945 27.1836L25.4381 30.6197Z" fill="#255A9E"/>
<path d="M39.2189 20.9385H37.0896L37.0939 15.0777C37.0942 14.6463 36.7447 14.2963 36.3133 14.296C36.313 14.296 36.3129 14.296 36.3127 14.296C35.8815 14.296 35.5319 14.6454 35.5316 15.0766L35.5274 20.9385H33.0277L33.0337 12.528C33.034 12.195 32.8231 11.8985 32.5084 11.7895C32.1938 11.6805 31.8446 11.7828 31.6387 12.0445L24.6737 20.8969V16.8544L35.5401 3.04318L35.5365 8.04631C35.5362 8.47765 35.8857 8.82768 36.3171 8.82799H36.3176C36.7488 8.82799 37.0985 8.47859 37.0988 8.0474L37.1039 0.785608C37.1042 0.452608 36.8933 0.156087 36.5786 0.0470398C36.264 -0.0618511 35.9148 0.0404001 35.7089 0.302082L24.6737 14.3278V6.15673C24.6737 6.0162 24.6358 5.87841 24.5641 5.75764L21.7823 1.0776C21.6415 0.840756 21.3863 0.695542 21.1108 0.695542C20.8353 0.695542 20.5801 0.840678 20.4393 1.0776L17.6575 5.75764C17.5857 5.87841 17.5479 6.01628 17.5479 6.15673V18.5109L11.9077 8.74457C12.717 6.92646 12.6145 4.8516 11.6102 3.11216C10.3241 0.8845 7.84868 -0.309082 5.30349 0.071802C5.0479 0.11 4.82777 0.272164 4.71545 0.505022C4.6032 0.737802 4.61335 1.01112 4.74255 1.23492L6.82031 4.83371L6.1754 6.13509L4.72591 6.04292L2.64816 2.44412C2.51896 2.22033 2.28735 2.07488 2.02965 2.05566C1.77227 2.03707 1.52136 2.14612 1.36045 2.34828C-0.241903 4.36198 -0.446172 7.10253 0.839976 9.33027C1.84429 11.0699 3.58982 12.1961 5.56915 12.4042L10.4978 20.9385H0.78678C0.355356 20.9385 0.00563985 21.2883 0.00563985 21.7196V39.2172C0.00563985 39.6485 0.355356 39.9983 0.78678 39.9983H39.2189C39.6503 39.9983 40 39.6485 40 39.2172V21.7196C40 21.2883 39.6503 20.9385 39.2189 20.9385ZM31.4654 20.9385H26.6288L31.4698 14.7856L31.4654 20.9385ZM23.1115 20.9385H19.1101V8.00678H23.1115V20.9385ZM21.1107 3.00545L23.1114 6.37131V6.44458H19.11V6.37131L21.1107 3.00545ZM6.7147 11.2638C6.58003 11.0307 6.33491 10.8833 6.0658 10.8738C4.44814 10.8167 3.0003 9.94768 2.19291 8.54913C1.43786 7.24126 1.36896 5.6971 1.95287 4.3644L3.58217 7.1865C3.71285 7.41288 3.94821 7.55895 4.20903 7.57543L6.59487 7.72721C6.9085 7.74768 7.20455 7.57661 7.34437 7.29454L8.40586 5.15242C8.52194 4.91815 8.51311 4.64139 8.38243 4.41502L6.75321 1.59299C8.19941 1.75367 9.50212 2.58535 10.2572 3.89322C11.0646 5.29169 11.0934 6.98013 10.334 8.40954C10.2077 8.64739 10.2128 8.93345 10.3475 9.16662L17.1456 20.9384H12.3018L6.7147 11.2638ZM38.4377 38.436H1.56792V22.5008H38.4377V38.436Z" fill="#255A9E"/>
<path d="M36.3231 12.343C36.7545 12.343 37.1043 11.9933 37.1043 11.5619C37.1043 11.1305 36.7545 10.7808 36.3231 10.7808C35.8917 10.7808 35.542 11.1305 35.542 11.5619C35.542 11.9933 35.8917 12.343 36.3231 12.343Z" fill="#255A9E"/>
</g>
<defs>
<clipPath id="clip0_365_6264">
<rect width="40" height="40" fill="white"/>
</clipPath>
</defs>
</svg>
